<?xml version='1.0' encoding='utf-8'?>
<svg xmlns="http://www.w3.org/2000/svg" version="1.1" width="600px" height="976px" viewBox="0 0 600 976"> <g id="layer1"> <g style="fill:rgb(0,0,0); fill-opacity:1.0; stroke-linejoin: miter"> <path d="M321.26083,313.3335Q324.57813,313.3335,326.17273,314.98862Q328.47552,316.5372,333.82202,323.6137Q338.16577,329.2475,342.69934,335.23038L342.69592,335.23038Q342.15048,337.09085,343.4731,339.81186Q340.57434,343.96533,339.14487,346.7942Q337.36172,350.34497,336.0189,353.92706L336.0189,353.92706L334.74545,353.04797Q319.75345,380.97336,309.55893,380.97336Q309.06186,380.97336,308.57623,380.90698Q303.49585,380.68893,297.4187,376.26297Q291.87836,372.48868,280.69458,360.63165L280.69177,360.63165Q280.51004,357.59296,279.6134,356.055Q278.9915,354.8687,277.8878,353.96326L277.885,353.96326L279.59164,352.15872Q280.0684,351.5372,280.2136,350.92923Q280.37015,350.33163,280.31967,349.46548Q279.8157,345.2813,279.90524,345.159Q279.92215,344.00403,280.24988,343.42184Q280.6846,342.62854,281.74207,342.20145Q287.27194,340.7696,287.8205,340.12244Q289.67844,338.8898,290.59048,336.7731Q291.2675,335.0314,290.93414,333.8143Q290.79517,333.20374,290.3771,332.50455L288.63068,330.024Q288.7415,327.71213,287.97696,325.07095L287.9741,325.07095L293.84454,322.88098L293.84454,322.88098L294.13733,323.5533Q313.0177,313.3335,321.26083,313.3335 Z M358.56198,356.4454Q366.76025,367.54575,375.5,379.64178L375.49625,379.64178Q372.418,386.8788,372.0794,387.105Q370.39307,390.22983,367.6498,392.0092L367.6498,392.0092Q367.5094,391.9302,367.36655,391.85153L330.01126,401.60095L357.6942,368.8899L347.76837,362.0379L347.7649,362.0379Q347.77457,359.71774,348.828,359.305Q349.23584,359.03787,350.2388,358.7421Q355.6646,357.38312,357.43054,356.80652Q358.00732,356.62857,358.5584,356.4454 Z M269.9796,290.89243Q269.52512,290.89243,268.17615,291.5457Q264.62894,292.63293,259.05542,299.1253Q250.0984,292.04306,244.78636,292.04306Q244.19066,292.04306,243.64078,292.13214L243.57938,292.13818Q237.41043,292.82205,231.44473,300.3004Q225.27783,308.4505,222.733,318.80237Q221.1596,325.6807,223.01648,329.67267Q224.57217,333.507,230.94281,337.50223Q228.40521,344.6198,228.44916,346.81436Q228.43553,349.31992,230.18517,349.31992Q230.37546,349.31992,230.58661,349.29028Q233.7406,348.7824,238.97185,344.90237L238.97424,344.90237Q239.2512,345.37354,239.56088,345.84857Q240.85777,347.89383,243.32687,350.61346L243.32445,350.61346L242.92072,350.62244L243.18321,352.26715L243.18321,352.26715L242.3953,352.3307Q240.59103,374.6604,241.44443,385.44565Q241.70215,408.6658,263.38336,441.94125L254.48944,513.2574L264.50574,513.65753L266.26703,568.4871L208.90234,664.94684Q209.2109,665.66046,209.58075,666.3567L209.57866,666.3567L202.13373,677.84674L202.17084,677.91754L214.92236,692.37537L217.76132,689.5338Q225.20963,701.9552,232.99081,703.43835Q236.58731,704.414,242.27603,704.51215L255.3399,704.38715Q257.6555,704.3184,259.3206,703.9025Q262.28894,703.2343,264.65485,700.3327Q267.18042,697.0175,266.35263,695.0433L266.3155,694.9808Q265.9456,694.31464,264.49347,693.9555Q257.60568,693.0455,256.1277,692.4318Q253.85806,691.7109,251.19308,690.2242Q248.17905,688.5493,244.51508,685.7973L244.51262,685.7973L281.3415,621.1289L279.47308,663.6631L279.4703,663.6631Q277.4898,666.91516,277.02127,670.85626Q276.2505,675.8647,278.18616,689.76385L298.79016,689.5745L299.309,685.08Q303.2205,687.1229,308.00677,687.75476Q313.32935,688.507,322.3262,688.507Q322.6991,688.507,323.07828,688.50574Q331.879,688.42456,335.85922,687.63873Q339.69766,686.96783,342.10367,684.80194Q346.79022,680.41864,344.2732,678.4014Q343.22583,677.60724,340.62494,677.33453Q340.7653,677.21967,330.13846,676.75916Q327.76025,676.5968,325.77676,676.2892Q322.23294,675.7516,319.89236,674.548Q314.83362,672.23987,311.60733,663.55066L311.60422,663.55066L312.02563,663.5071Q324.33414,564.1231,324.5477,508.21872L331.72736,508.0309Q327.65314,439.90485,322.10022,429.4353L371.6912,419.0369Q374.94418,410.49863,375.55984,405.2083L375.5636,405.2083Q375.59995,405.4577,375.63205,405.71Q379.28064,404.2217,381.0356,402.43765Q381.78296,401.72928,382.66486,400.5459L386.01724,395.7524Q386.4727,395.17596,386.8655,394.78052L386.8694,394.78052Q389.92123,398.50818,392.40805,401.12054Q401.37448,410.924,409.14157,410.924Q412.37457,410.924,415.39975,409.2255Q426.05222,401.73016,425.22797,388.8931Q424.80707,385.73828,422.94827,382.4956Q422.82275,381.65573,414.29913,370.44522Q412.7872,368.27954,411.21988,365.66983Q407.49622,359.59302,400.80103,345.58896L400.72528,345.39337Q404.32083,343.82053,405.42847,342.9795Q406.4512,342.2439,405.8186,341.7246Q404.7745,340.90536,397.9665,340.90536Q394.2301,340.90536,388.75757,341.15213Q375.0845,341.92514,374.63132,343.3815Q374.0304,344.445,381.58762,346.69827Q387.29816,362.10794,391.64343,368.4048Q379.74976,355.4412,370.59283,345.60162L370.58914,345.60162Q370.76,344.31216,370.50006,343.01346Q369.12103,337.525,363.50354,332.76242Q359.79465,329.8036,355.56055,329.61304L355.55698,329.61304Q350.3288,324.13556,346.85257,320.65793Q335.63364,309.25443,330.0829,306.56888Q326.58508,304.71597,322.53046,304.71597Q319.4858,304.71597,316.1272,305.76074Q310.57443,307.05743,291.7151,317.88788L291.67926,317.90857L291.98398,318.6083L291.98398,318.6083L286.76852,321.85645L286.76852,321.85645Q286.30896,320.90417,285.85565,320.3686Q285.34924,319.7174,284.11218,319.41898Q283.93506,319.3324,283.86133,319.10794Q283.80783,318.91803,283.82605,318.65942Q284.21915,316.25372,284.1342,315.39172Q284.0826,314.21295,283.46793,313.31424Q282.78195,312.26163,280.7038,311.6751Q279.89996,311.32346,273.5753,310.48825Q272.5633,310.3021,272.0908,310.01645Q271.61185,309.7078,271.60257,309.26013L272.17575,306.87405Q272.18713,306.15457,271.7542,305.6725Q270.88608,304.64316,268.48444,303.5405L268.48175,303.5405Q270.57684,298.668,272.63544,293.2211L272.63272,293.2211Q272.47638,293.53635,272.31604,293.53635Q272.2142,293.53635,272.11075,293.40924Q270.70132,290.9748,270.2031,290.9748Q270.1964,290.9748,270.18988,290.97522Q270.14145,290.89243,269.9796,290.89243 Z"/> </g> </g> </svg>